<svg width="27" height="27" viewBox="0 0 27 27" fill="none" xmlns="http://www.w3.org/2000/svg">
<path d="M13.3014 0C9.77442 0 6.38881 1.40225 3.89688 3.89584C1.40238 6.39042 0.000690985 9.77355 0 13.3014C0 16.8277 1.40288 20.2133 3.89688 22.7069C6.38881 25.2005 9.77442 26.6027 13.3014 26.6027C16.8283 26.6027 20.2139 25.2005 22.7058 22.7069C25.1998 20.2133 26.6027 16.8277 26.6027 13.3014C26.6027 9.77504 25.1998 6.38943 22.7058 3.89584C20.2139 1.40225 16.8283 0 13.3014 0Z" fill="#D8D8D8"/>
<path d="M18.7117 8.28374C17.6894 7.80592 16.608 7.4664 15.4959 7.27417C15.3574 7.52436 15.1955 7.86086 15.0839 8.12857C13.8849 7.94846 12.6969 7.94846 11.5199 8.12857C11.4084 7.86092 11.2429 7.52436 11.1031 7.27417C9.98989 7.46649 8.90751 7.80687 7.88478 8.28624C5.84964 11.3586 5.29792 14.3546 5.57375 17.3082C6.92359 18.3152 8.23173 18.927 9.51782 19.3273C9.83745 18.8882 10.12 18.4233 10.3625 17.9374C9.90077 17.7618 9.45561 17.5454 9.03235 17.2907C9.14374 17.2082 9.2525 17.1223 9.35847 17.033C11.9232 18.2314 14.71 18.2314 17.2442 17.033C17.3506 17.1217 17.4593 17.2076 17.5702 17.2907C17.1463 17.546 16.7003 17.7629 16.2376 17.9387C16.4815 18.4266 16.7636 18.8919 17.0823 19.3285C18.3696 18.9283 19.679 18.3165 21.0288 17.3082C21.3525 13.8843 20.476 10.9158 18.7117 8.28374ZM10.712 15.4918C9.94203 15.4918 9.31062 14.7737 9.31062 13.8993C9.31062 13.0249 9.92858 12.3056 10.712 12.3056C11.4954 12.3056 12.1268 13.0236 12.1133 13.8993C12.1145 14.7737 11.4954 15.4918 10.712 15.4918ZM15.8906 15.4918C15.1207 15.4918 14.4893 14.7737 14.4893 13.8993C14.4893 13.0249 15.1072 12.3056 15.8906 12.3056C16.6741 12.3056 17.3054 13.0236 17.292 13.8993C17.292 14.7737 16.6741 15.4918 15.8906 15.4918Z" fill="white"/>
</svg>
