<svg width="27" height="27" viewBox="0 0 27 27" fill="none" xmlns="http://www.w3.org/2000/svg">
<path d="M13.3014 0C9.77442 0 6.38881 1.40225 3.89688 3.89584C1.40238 6.39042 0.000690985 9.77355 0 13.3014C0 16.8277 1.40288 20.2133 3.89688 22.7069C6.38881 25.2005 9.77442 26.6027 13.3014 26.6027C16.8283 26.6027 20.2139 25.2005 22.7058 22.7069C25.1998 20.2133 26.6027 16.8277 26.6027 13.3014C26.6027 9.77504 25.1998 6.38943 22.7058 3.89584C20.2139 1.40225 16.8283 0 13.3014 0Z" fill="#D8D8D8"/>
<path d="M13.3533 7.75448C15.143 7.75448 15.355 7.76129 16.0617 7.7935C16.7152 7.82334 17.0702 7.93252 17.3064 8.02432C17.6192 8.14591 17.8425 8.29117 18.077 8.52571C18.3116 8.76025 18.4568 8.98353 18.5784 9.29635C18.6702 9.53257 18.7794 9.88749 18.8092 10.5409C18.8414 11.2478 18.8482 11.4597 18.8482 13.2494C18.8482 15.0391 18.8414 15.2511 18.8092 15.9578C18.7794 16.6113 18.6702 16.9662 18.5784 17.2024C18.4568 17.5153 18.3116 17.7386 18.077 17.9731C17.8425 18.2077 17.6192 18.3529 17.3064 18.4745C17.0702 18.5663 16.7152 18.6755 16.0617 18.7053C15.3551 18.7375 15.1431 18.7443 13.3533 18.7443C11.5635 18.7443 11.3515 18.7375 10.6449 18.7053C9.99138 18.6754 9.63651 18.5663 9.4003 18.4745C9.08747 18.3529 8.86414 18.2077 8.6296 17.9731C8.39506 17.7385 8.2498 17.5153 8.12826 17.2024C8.03647 16.9663 7.92723 16.6113 7.89744 15.9578C7.86518 15.2511 7.85837 15.0391 7.85837 13.2494C7.85837 11.4597 7.86518 11.2478 7.89744 10.541C7.92729 9.88749 8.03647 9.53257 8.12826 9.29635C8.2498 8.98353 8.39506 8.76025 8.6296 8.52571C8.86419 8.29111 9.08747 8.14591 9.4003 8.02432C9.63646 7.93252 9.99138 7.82334 10.6449 7.7935C11.3517 7.76129 11.5636 7.75448 13.3533 7.75448ZM13.3533 6.54675C11.533 6.54675 11.3047 6.55445 10.5899 6.58707C9.87639 6.61964 9.38914 6.73296 8.96284 6.89864C8.52204 7.06993 8.14826 7.29912 7.77564 7.67175C7.40301 8.04437 7.17387 8.41815 7.00258 8.8589C6.83685 9.28525 6.72359 9.7725 6.69102 10.4859C6.65839 11.2008 6.6507 11.429 6.6507 13.2494C6.6507 15.0697 6.65839 15.298 6.69102 16.0129C6.72359 16.7263 6.83685 17.2136 7.00258 17.6399C7.17382 18.0806 7.40301 18.4545 7.77564 18.8271C8.14826 19.1997 8.52204 19.4289 8.96284 19.6001C9.38919 19.7659 9.87639 19.8791 10.5898 19.9117C11.3047 19.9443 11.533 19.952 13.3533 19.952C15.1737 19.952 15.4019 19.9443 16.1168 19.9117C16.8302 19.8791 17.3175 19.7659 17.7438 19.6001C18.1846 19.4289 18.5584 19.1997 18.931 18.8271C19.3036 18.4545 19.5328 18.0807 19.7041 17.6399C19.8698 17.2135 19.9831 16.7263 20.0157 16.0129C20.0483 15.298 20.056 15.0697 20.056 13.2494C20.056 11.429 20.0483 11.2008 20.0157 10.4859C19.9831 9.7725 19.8698 9.28525 19.7041 8.85895C19.5328 8.41815 19.3036 8.04437 18.931 7.67175C18.5584 7.29912 18.1846 7.06987 17.7438 6.89864C17.3175 6.73296 16.8302 6.61964 16.1168 6.58707C15.4019 6.55445 15.1737 6.54675 13.3533 6.54675ZM13.3533 9.80748C11.4524 9.80748 9.91142 11.3486 9.91142 13.2494C9.91142 15.1503 11.4524 16.6913 13.3533 16.6913C15.2542 16.6913 16.7952 15.1503 16.7952 13.2494C16.7952 11.3485 15.2542 9.80748 13.3533 9.80748ZM13.3533 15.4836C12.1194 15.4836 11.1191 14.4833 11.1191 13.2494C11.1191 12.0155 12.1194 11.0152 13.3533 11.0152C14.5872 11.0152 15.5876 12.0155 15.5876 13.2494C15.5876 14.4833 14.5872 15.4836 13.3533 15.4836ZM17.7355 9.67149C17.7355 10.1158 17.3754 10.4758 16.9312 10.4758C16.487 10.4758 16.1269 10.1158 16.1269 9.67149C16.1269 9.22728 16.487 8.86717 16.9312 8.86717C17.3754 8.86717 17.7355 9.22728 17.7355 9.67149Z" fill="white"/>
</svg>
