<svg width="27" height="27" viewBox="0 0 27 27" fill="none" xmlns="http://www.w3.org/2000/svg">
<path d="M13.3014 0C9.77442 0 6.38881 1.40225 3.89688 3.89584C1.40238 6.39042 0.000690985 9.77355 0 13.3014C0 16.8277 1.40288 20.2133 3.89688 22.7069C6.38881 25.2005 9.77442 26.6027 13.3014 26.6027C16.8283 26.6027 20.2139 25.2005 22.7058 22.7069C25.1998 20.2133 26.6027 16.8277 26.6027 13.3014C26.6027 9.77504 25.1998 6.38943 22.7058 3.89584C20.2139 1.40225 16.8283 0 13.3014 0Z" fill="#D8D8D8"/>
<path d="M6.02098 13.1608C9.89916 11.4716 12.4846 10.3578 13.7773 9.8197C17.4726 8.28318 18.2395 8.01632 18.7404 8.00728C18.8506 8.00551 19.0958 8.03274 19.2558 8.16212C19.3889 8.27123 19.4263 8.41879 19.445 8.5224C19.4616 8.6259 19.4845 8.86179 19.4657 9.04593C19.2662 11.1492 18.3996 16.2532 17.959 18.609C17.774 19.6058 17.4061 19.94 17.0507 19.9726C16.2776 20.0437 15.6915 19.4621 14.9433 18.9719C13.7732 18.2043 13.1123 17.7267 11.9754 16.9779C10.6619 16.1125 11.514 15.6368 12.2622 14.8595C12.4576 14.656 15.8619 11.5603 15.9263 11.2795C15.9347 11.2444 15.943 11.1135 15.864 11.0445C15.7871 10.9753 15.6728 10.9989 15.5897 11.0176C15.4712 11.0443 13.6028 12.2804 9.97814 14.726C9.44816 15.0906 8.96807 15.2683 8.53577 15.2589C8.06191 15.2487 7.14744 14.9904 6.46783 14.7697C5.63649 14.4989 4.9735 14.3557 5.0317 13.8957C5.06079 13.6563 5.39125 13.4113 6.02098 13.1608Z" fill="white"/>
</svg>
