<svg width="27" height="27" viewBox="0 0 27 27" fill="none" xmlns="http://www.w3.org/2000/svg">
<path d="M13.3014 0C9.77442 0 6.38881 1.40225 3.89688 3.89584C1.40238 6.39042 0.000690985 9.77355 0 13.3014C0 16.8277 1.40288 20.2133 3.89688 22.7069C6.38881 25.2005 9.77442 26.6027 13.3014 26.6027C16.8283 26.6027 20.2139 25.2005 22.7058 22.7069C25.1998 20.2133 26.6027 16.8277 26.6027 13.3014C26.6027 9.77504 25.1998 6.38943 22.7058 3.89584C20.2139 1.40225 16.8283 0 13.3014 0Z" fill="#D8D8D8"/>
<path d="M14.4111 12.3821L18.5504 7.58594H17.5695L13.9753 11.7504L11.1047 7.58594H7.7937L12.1347 13.8833L7.7937 18.9129H8.77465L12.5702 14.5151L15.6018 18.9129H18.9128L14.4108 12.3821H14.4111ZM13.0675 13.9388L12.6277 13.3117L9.1281 8.322H10.6348L13.459 12.3489L13.8988 12.976L17.57 18.2103H16.0633L13.0675 13.9391V13.9388Z" fill="white"/>
</svg>
